<?xml version="1.0" encoding="utf-8"?>
<!-- Generator: Adobe Illustrator 22.1.0, SVG Export Plug-In . SVG Version: 6.00 Build 0)  -->
<svg version="1.1" id="Layer_1" xmlns="http://www.w3.org/2000/svg" xmlns:xlink="http://www.w3.org/1999/xlink" x="0px" y="0px"
	 viewBox="0 0 46.2 36" style="enable-background:new 0 0 46.2 36;" xml:space="preserve">
<style type="text/css">
	.st0{display:none;}
	.st1{display:inline;}
	.st2{fill:#FFFFFF;}
	.st3{display:none;fill:#FFFFFF;}
</style>
<g class="st0">
	<g class="st1">
		<path class="st2" d="M21.4,24.1h-14c-1.8,0-3.2-1.4-3.2-3.2v-5.1c0-1.8,1.4-3.2,3.2-3.2h14c0.6,0,1,0.4,1,1c0,0.6-0.4,1-1,1h-14
			c-0.7,0-1.2,0.5-1.2,1.2v5.1c0,0.7,0.5,1.2,1.2,1.2h14c0.6,0,1,0.4,1,1S22,24.1,21.4,24.1z"/>
	</g>
	<g class="st1">
		<path class="st2" d="M31.2,24.1h-2.8c-0.6,0-1-0.4-1-1s0.4-1,1-1h2.8c0.7,0,1.2-0.5,1.2-1.2v-5.1c0-0.7-0.5-1.2-1.2-1.2h-2.8
			c-0.6,0-1-0.4-1-1s0.4-1,1-1h2.8c1.8,0,3.2,1.4,3.2,3.2v5.1C34.4,22.7,33,24.1,31.2,24.1z"/>
	</g>
	<g class="st1">
		<path class="st2" d="M31.2,10.1H7.5c-1.8,0-3.2-1.4-3.2-3.2V1.8c0-1.8,1.4-3.2,3.2-3.2h23.8c1.8,0,3.2,1.4,3.2,3.2v5.1
			C34.4,8.7,33,10.1,31.2,10.1z M7.5,0.6c-0.7,0-1.2,0.5-1.2,1.2v5.1c0,0.7,0.5,1.2,1.2,1.2h23.8c0.7,0,1.2-0.5,1.2-1.2V1.8
			c0-0.7-0.5-1.2-1.2-1.2H7.5z"/>
	</g>
	<g class="st1">
		<path class="st2" d="M31.2,38.1H7.5c-1.8,0-3.2-1.4-3.2-3.2v-5.1c0-1.8,1.4-3.2,3.2-3.2h23.8c1.8,0,3.2,1.4,3.2,3.2v5.1
			C34.4,36.7,33,38.1,31.2,38.1z M7.5,28.6c-0.7,0-1.2,0.5-1.2,1.2v5.1c0,0.7,0.5,1.2,1.2,1.2h23.8c0.7,0,1.2-0.5,1.2-1.2v-5.1
			c0-0.7-0.5-1.2-1.2-1.2C31.3,28.6,7.5,28.6,7.5,28.6z"/>
	</g>
	<g class="st1">
		<path class="st2" d="M41.2,24.1h-1.6c-1.8,0-3.2-1.4-3.2-3.2v-5.1c0-1.8,1.4-3.2,3.2-3.2h1.6c1.8,0,3.2,1.4,3.2,3.2v5.1
			C44.4,22.7,43,24.1,41.2,24.1z M39.7,14.6c-0.7,0-1.2,0.5-1.2,1.2v5.1c0,0.7,0.5,1.2,1.2,1.2h1.6c0.7,0,1.2-0.5,1.2-1.2v-5.1
			c0-0.7-0.5-1.2-1.2-1.2H39.7z"/>
	</g>
	<g class="st1">
		<path class="st2" d="M41.2,10.1h-1.6c-1.8,0-3.2-1.4-3.2-3.2V1.8c0-1.8,1.4-3.2,3.2-3.2h1.6c1.8,0,3.2,1.4,3.2,3.2v5.1
			C44.4,8.7,43,10.1,41.2,10.1z M39.7,0.6c-0.7,0-1.3,0.5-1.3,1.2v5.1c0,0.7,0.5,1.2,1.2,1.2h1.6c0.7,0,1.2-0.5,1.2-1.2V1.8
			c0-0.7-0.5-1.2-1.2-1.2H39.7z"/>
	</g>
	<g class="st1">
		<path class="st2" d="M41.2,38.1h-1.6c-1.8,0-3.2-1.4-3.2-3.2v-5.1c0-1.8,1.4-3.2,3.2-3.2h1.6c1.8,0,3.2,1.4,3.2,3.2v5.1
			C44.4,36.7,43,38.1,41.2,38.1z M39.7,28.6c-0.7,0-1.2,0.5-1.2,1.2v5.1c0,0.7,0.5,1.2,1.2,1.2h1.6c0.7,0,1.2-0.5,1.2-1.2v-5.1
			c0-0.7-0.5-1.2-1.2-1.2C41.3,28.6,39.7,28.6,39.7,28.6z"/>
	</g>
</g>
<path class="st3" d="M8.9,25.5H1.9c-1.3,0-2.4,1.1-2.4,2.4v7.1c0,1.3,1.1,2.3,2.4,2.3h7.1c1.3,0,2.3-1.1,2.3-2.3v-7.1
	C11.3,26.6,10.2,25.5,8.9,25.5z M7.2,19.6h14.1v3.5h3.5v-3.5h14.1v3.5h3.5v-4.2c0-1.6-1.3-2.8-2.8-2.8H24.8v-4.7h2.9
	c1.3,0,2.4-1.1,2.4-2.3V2c0-1.3-1.1-2.3-2.4-2.3h-9.4C17-0.3,16,0.7,16,2v7.1c0,1.3,1.1,2.3,2.3,2.3h2.9v4.7H6.5
	c-1.6,0-2.8,1.3-2.8,2.8v4.2h3.5V19.6z M26.6,25.5h-7.1c-1.3,0-2.3,1.1-2.3,2.4v7.1c0,1.3,1.1,2.3,2.3,2.3h7.1
	c1.3,0,2.4-1.1,2.4-2.3v-7.1C28.9,26.6,27.9,25.5,26.6,25.5z M44.2,25.5h-7c-1.3,0-2.4,1.1-2.4,2.4v7.1c0,1.3,1.1,2.3,2.4,2.3h7
	c1.3,0,2.3-1.1,2.3-2.3v-7.1C46.5,26.6,45.5,25.5,44.2,25.5z"/>
<path class="st0" d="M23.1,7.2l-11,7l11,7l-11,7L1,21.2l11.1-7L1,7.2l11.1-7L23.1,7.2L23.1,7.2z M12,30.5l11-7l11,7l-11,7L12,30.5z
	 M23.1,21.2l11-7l-11-7l11-7l11.1,7l-11.1,7l11.1,7l-11.1,7L23.1,21.2L23.1,21.2z"/>
<path d="M42.4,0H3.9C1.7,0,0,1.7,0,3.9v28.3C0,34.2,1.7,36,3.9,36h38.5c2.1,0,3.9-1.7,3.9-3.9V3.9C46.2,1.7,44.5,0,42.4,0z
	 M42.4,32.1H3.9V3.9h38.5V32.1z M16.7,18c2.8,0,5.1-2.3,5.1-5.1s-2.3-5.1-5.1-5.1s-5.1,2.3-5.1,5.1S13.9,18,16.7,18z M9.5,28.3h14.4
	c1,0,1.8-0.7,1.8-1.5v-1.5c0-2.6-2.4-4.6-5.4-4.6c-0.9,0-1.5,0.6-3.6,0.6c-2.2,0-2.7-0.6-3.6-0.6c-3,0-5.4,2.1-5.4,4.6v1.5
	C7.7,27.6,8.5,28.3,9.5,28.3z M28.9,23.1h9c0.4,0,0.6-0.3,0.6-0.6v-1.3c0-0.4-0.3-0.6-0.6-0.6h-9c-0.4,0-0.6,0.3-0.6,0.6v1.3
	C28.3,22.8,28.5,23.1,28.9,23.1z M28.9,18h9c0.4,0,0.6-0.3,0.6-0.6v-1.3c0-0.4-0.3-0.6-0.6-0.6h-9c-0.4,0-0.6,0.3-0.6,0.6v1.3
	C28.3,17.7,28.5,18,28.9,18z M28.9,12.8h9c0.4,0,0.6-0.3,0.6-0.6v-1.3c0-0.4-0.3-0.6-0.6-0.6h-9c-0.4,0-0.6,0.3-0.6,0.6v1.3
	C28.3,12.6,28.5,12.8,28.9,12.8z"/>
<path class="st0" d="M46.9,15.4v1.4c0,1.1-0.9,2-2,2h-0.7L42,34.3c-0.3,2-2,3.5-4,3.5H7.1c-2,0-3.7-1.5-4-3.5L0.9,18.8H0.2
	c-1.1,0-2-0.9-2-2v-1.4c0-1.1,0.9-2,2-2h5.7l9-12.4c0.9-1.2,2.6-1.5,3.8-0.6c1.2,0.9,1.5,2.6,0.6,3.8l-6.7,9.2h19.9l-6.7-9.2
	c-0.9-1.2-0.6-2.9,0.6-3.8c1.2-0.9,2.9-0.6,3.8,0.6l9,12.4h5.7C46,13.4,46.9,14.3,46.9,15.4z M24.5,30.3v-9.5c0-1.1-0.9-2-2-2
	c-1.1,0-2,0.9-2,2v9.5c0,1.1,0.9,2,2,2C23.6,32.3,24.5,31.4,24.5,30.3z M34,30.3v-9.5c0-1.1-0.9-2-2-2c-1.1,0-2,0.9-2,2v9.5
	c0,1.1,0.9,2,2,2C33.1,32.3,34,31.4,34,30.3z M15.1,30.3v-9.5c0-1.1-0.9-2-2-2s-2,0.9-2,2v9.5c0,1.1,0.9,2,2,2S15.1,31.4,15.1,30.3z
	"/>
</svg>
