<?xml version="1.0" encoding="utf-8"?>
<!-- Generator: Adobe Illustrator 22.1.0, SVG Export Plug-In . SVG Version: 6.00 Build 0)  -->
<svg version="1.1" id="Layer_1" xmlns="http://www.w3.org/2000/svg" xmlns:xlink="http://www.w3.org/1999/xlink" x="0px" y="0px"
	 viewBox="0 0 48.7 37.9" style="enable-background:new 0 0 48.7 37.9;" xml:space="preserve">
<style type="text/css">
	.st0{display:none;}
	.st1{display:inline;}
	.st2{fill:#FFFFFF;}
	.st3{display:none;fill:#FFFFFF;}
</style>
<g class="st0">
	<g class="st1">
		<path class="st2" d="M23.3,24.3h-14c-1.8,0-3.2-1.4-3.2-3.2V16c0-1.8,1.4-3.2,3.2-3.2h14c0.6,0,1,0.4,1,1c0,0.6-0.4,1-1,1h-14
			c-0.7,0-1.2,0.5-1.2,1.2v5.1c0,0.7,0.5,1.2,1.2,1.2h14c0.6,0,1,0.4,1,1S23.9,24.3,23.3,24.3z"/>
	</g>
	<g class="st1">
		<path class="st2" d="M33.1,24.3h-2.8c-0.6,0-1-0.4-1-1s0.4-1,1-1h2.8c0.7,0,1.2-0.5,1.2-1.2V16c0-0.7-0.5-1.2-1.2-1.2h-2.8
			c-0.6,0-1-0.4-1-1s0.4-1,1-1h2.8c1.8,0,3.2,1.4,3.2,3.2v5.1C36.3,22.9,34.9,24.3,33.1,24.3z"/>
	</g>
	<g class="st1">
		<path class="st2" d="M33.1,10.3H9.4c-1.8,0-3.2-1.4-3.2-3.2V2c0-1.8,1.4-3.2,3.2-3.2h23.8c1.8,0,3.2,1.4,3.2,3.2v5.1
			C36.3,8.9,34.9,10.3,33.1,10.3z M9.4,0.8C8.7,0.8,8.2,1.3,8.2,2v5.1c0,0.7,0.5,1.2,1.2,1.2h23.8c0.7,0,1.2-0.5,1.2-1.2V2
			c0-0.7-0.5-1.2-1.2-1.2H9.4z"/>
	</g>
	<g class="st1">
		<path class="st2" d="M33.1,38.3H9.4c-1.8,0-3.2-1.4-3.2-3.2V30c0-1.8,1.4-3.2,3.2-3.2h23.8c1.8,0,3.2,1.4,3.2,3.2v5.1
			C36.3,36.9,34.9,38.3,33.1,38.3z M9.4,28.8c-0.7,0-1.2,0.5-1.2,1.2v5.1c0,0.7,0.5,1.2,1.2,1.2h23.8c0.7,0,1.2-0.5,1.2-1.2V30
			c0-0.7-0.5-1.2-1.2-1.2C33.2,28.8,9.4,28.8,9.4,28.8z"/>
	</g>
	<g class="st1">
		<path class="st2" d="M43.1,24.3h-1.6c-1.8,0-3.2-1.4-3.2-3.2V16c0-1.8,1.4-3.2,3.2-3.2h1.6c1.8,0,3.2,1.4,3.2,3.2v5.1
			C46.3,22.9,44.9,24.3,43.1,24.3z M41.6,14.8c-0.7,0-1.2,0.5-1.2,1.2v5.1c0,0.7,0.5,1.2,1.2,1.2h1.6c0.7,0,1.2-0.5,1.2-1.2V16
			c0-0.7-0.5-1.2-1.2-1.2H41.6z"/>
	</g>
	<g class="st1">
		<path class="st2" d="M43.1,10.3h-1.6c-1.8,0-3.2-1.4-3.2-3.2V2c0-1.8,1.4-3.2,3.2-3.2h1.6c1.8,0,3.2,1.4,3.2,3.2v5.1
			C46.3,8.9,44.9,10.3,43.1,10.3z M41.6,0.8c-0.7,0-1.3,0.5-1.3,1.2v5.1c0,0.7,0.5,1.2,1.2,1.2h1.6c0.7,0,1.2-0.5,1.2-1.2V2
			c0-0.7-0.5-1.2-1.2-1.2H41.6z"/>
	</g>
	<g class="st1">
		<path class="st2" d="M43.1,38.3h-1.6c-1.8,0-3.2-1.4-3.2-3.2V30c0-1.8,1.4-3.2,3.2-3.2h1.6c1.8,0,3.2,1.4,3.2,3.2v5.1
			C46.3,36.9,44.9,38.3,43.1,38.3z M41.6,28.8c-0.7,0-1.2,0.5-1.2,1.2v5.1c0,0.7,0.5,1.2,1.2,1.2h1.6c0.7,0,1.2-0.5,1.2-1.2V30
			c0-0.7-0.5-1.2-1.2-1.2C43.2,28.8,41.6,28.8,41.6,28.8z"/>
	</g>
</g>
<path class="st3" d="M10.8,25.7h-7c-1.3,0-2.3,1.1-2.3,2.4v7.1c0,1.3,1.1,2.3,2.3,2.3h7c1.3,0,2.4-1.1,2.4-2.3V28
	C13.1,26.7,12.1,25.7,10.8,25.7z M9,19.8h14.1v3.5h3.5v-3.5h14.1v3.5h3.5v-4.2c0-1.6-1.3-2.8-2.8-2.8H26.6v-4.7h2.9
	c1.3,0,2.3-1.1,2.3-2.3V2.2c0-1.3-1.1-2.3-2.3-2.3h-9.4c-1.3,0-2.3,1.1-2.3,2.3v7.1c0,1.3,1.1,2.3,2.3,2.3h2.9v4.7H8.3
	c-1.6,0-2.8,1.3-2.8,2.8v4.2H9V19.8z M28.4,25.7h-7C20,25.7,19,26.7,19,28v7.1c0,1.3,1.1,2.3,2.4,2.3h7c1.3,0,2.4-1.1,2.4-2.3V28
	C30.7,26.7,29.7,25.7,28.4,25.7z M46,25.7h-7c-1.3,0-2.4,1.1-2.4,2.4v7.1c0,1.3,1.1,2.3,2.4,2.3h7c1.3,0,2.3-1.1,2.3-2.3V28
	C48.4,26.7,47.3,25.7,46,25.7z"/>
<path class="st0" d="M24.9,7.3l-11,7l11,7l-11,7L2.8,21.4l11.1-7l-11.1-7l11.1-7L24.9,7.3L24.9,7.3z M13.8,30.7l11-7l11,7l-11,7
	L13.8,30.7z M24.9,21.4l11-7l-11-7l11-7l11.1,7l-11.1,7l11.1,7l-11.1,7L24.9,21.4L24.9,21.4z"/>
<path class="st3" d="M44.2,0.1H5.7C3.6,0.1,1.8,1.9,1.8,4v28.3c0,2.1,1.7,3.9,3.9,3.9h38.5c2.1,0,3.9-1.7,3.9-3.9V4
	C48.1,1.9,46.3,0.1,44.2,0.1z M44.2,32.3H5.7V4h38.5V32.3z M18.5,18.1c2.8,0,5.1-2.3,5.1-5.1s-2.3-5.1-5.1-5.1s-5.1,2.3-5.1,5.1
	S15.7,18.1,18.5,18.1z M11.3,28.4h14.4c1,0,1.8-0.7,1.8-1.5v-1.5c0-2.6-2.4-4.6-5.4-4.6c-0.9,0-1.5,0.6-3.6,0.6
	c-2.2,0-2.7-0.6-3.6-0.6c-3,0-5.4,2.1-5.4,4.6v1.5C9.5,27.7,10.3,28.4,11.3,28.4z M30.7,23.3h9c0.4,0,0.6-0.3,0.6-0.6v-1.3
	c0-0.4-0.3-0.6-0.6-0.6h-9c-0.4,0-0.6,0.3-0.6,0.6v1.3C30.1,23,30.4,23.3,30.7,23.3z M30.7,18.1h9c0.4,0,0.6-0.3,0.6-0.6v-1.3
	c0-0.4-0.3-0.6-0.6-0.6h-9c-0.4,0-0.6,0.3-0.6,0.6v1.3C30.1,17.8,30.4,18.1,30.7,18.1z M30.7,13h9c0.4,0,0.6-0.3,0.6-0.6v-1.3
	c0-0.4-0.3-0.6-0.6-0.6h-9c-0.4,0-0.6,0.3-0.6,0.6v1.3C30.1,12.7,30.4,13,30.7,13z"/>
<path class="st2" d="M48.7,15.6v1.4c0,1.1-0.9,2-2,2H46l-2.2,15.5c-0.3,2-2,3.5-4,3.5H8.9c-2,0-3.7-1.5-4-3.5L2.7,18.9H2
	c-1.1,0-2-0.9-2-2v-1.4c0-1.1,0.9-2,2-2h5.7l9-12.4c0.9-1.2,2.6-1.5,3.8-0.6c1.2,0.9,1.5,2.6,0.6,3.8l-6.7,9.2h19.9l-6.7-9.2
	c-0.9-1.2-0.6-2.9,0.6-3.8c1.2-0.9,2.9-0.6,3.8,0.6l9,12.4h5.7C47.8,13.5,48.7,14.4,48.7,15.6z M26.4,30.4V21c0-1.1-0.9-2-2-2
	s-2,0.9-2,2v9.5c0,1.1,0.9,2,2,2S26.4,31.6,26.4,30.4z M35.9,30.4V21c0-1.1-0.9-2-2-2s-2,0.9-2,2v9.5c0,1.1,0.9,2,2,2
	S35.9,31.6,35.9,30.4z M16.9,30.4V21c0-1.1-0.9-2-2-2s-2,0.9-2,2v9.5c0,1.1,0.9,2,2,2S16.9,31.6,16.9,30.4z"/>
</svg>
