<?xml version="1.0" encoding="utf-8"?>
<!-- Generator: Adobe Illustrator 22.1.0, SVG Export Plug-In . SVG Version: 6.00 Build 0)  -->
<svg version="1.1" id="Layer_1" xmlns="http://www.w3.org/2000/svg" xmlns:xlink="http://www.w3.org/1999/xlink" x="0px" y="0px"
	 viewBox="0 0 40.2 39.5" style="enable-background:new 0 0 40.2 39.5;" xml:space="preserve">
<style type="text/css">
	.st0{display:none;}
	.st1{display:inline;}
	.st2{fill:#FFFFFF;}
	.st3{display:none;fill:#FFFFFF;}
</style>
<g class="st0">
	<g class="st1">
		<path class="st2" d="M18.9,25.7h-14c-1.8,0-3.2-1.4-3.2-3.2v-5.1c0-1.8,1.4-3.2,3.2-3.2h14c0.6,0,1,0.4,1,1c0,0.6-0.4,1-1,1h-14
			c-0.7,0-1.2,0.5-1.2,1.2v5.1c0,0.7,0.5,1.2,1.2,1.2h14c0.6,0,1,0.4,1,1S19.5,25.7,18.9,25.7z"/>
	</g>
	<g class="st1">
		<path class="st2" d="M28.7,25.7h-2.8c-0.6,0-1-0.4-1-1s0.4-1,1-1h2.8c0.7,0,1.2-0.5,1.2-1.2v-5.1c0-0.7-0.5-1.2-1.2-1.2h-2.8
			c-0.6,0-1-0.4-1-1s0.4-1,1-1h2.8c1.8,0,3.2,1.4,3.2,3.2v5.1C31.9,24.3,30.5,25.7,28.7,25.7z"/>
	</g>
	<g class="st1">
		<path class="st2" d="M28.7,11.7H5c-1.8,0-3.2-1.4-3.2-3.2V3.4c0-1.8,1.4-3.2,3.2-3.2h23.8c1.8,0,3.2,1.4,3.2,3.2v5.1
			C31.9,10.3,30.5,11.7,28.7,11.7z M5,2.2c-0.7,0-1.2,0.5-1.2,1.2v5.1c0,0.7,0.5,1.2,1.2,1.2h23.8c0.7,0,1.2-0.5,1.2-1.2V3.4
			c0-0.7-0.5-1.2-1.2-1.2H5z"/>
	</g>
	<g class="st1">
		<path class="st2" d="M28.7,39.7H5c-1.8,0-3.2-1.4-3.2-3.2v-5.1c0-1.8,1.4-3.2,3.2-3.2h23.8c1.8,0,3.2,1.4,3.2,3.2v5.1
			C31.9,38.3,30.5,39.7,28.7,39.7z M5,30.2c-0.7,0-1.2,0.5-1.2,1.2v5.1c0,0.7,0.5,1.2,1.2,1.2h23.8c0.7,0,1.2-0.5,1.2-1.2v-5.1
			c0-0.7-0.5-1.2-1.2-1.2C28.8,30.2,5,30.2,5,30.2z"/>
	</g>
	<g class="st1">
		<path class="st2" d="M38.7,25.7h-1.6c-1.8,0-3.2-1.4-3.2-3.2v-5.1c0-1.8,1.4-3.2,3.2-3.2h1.6c1.8,0,3.2,1.4,3.2,3.2v5.1
			C41.9,24.3,40.5,25.7,38.7,25.7z M37.2,16.2c-0.7,0-1.2,0.5-1.2,1.2v5.1c0,0.7,0.5,1.2,1.2,1.2h1.6c0.7,0,1.2-0.5,1.2-1.2v-5.1
			c0-0.7-0.5-1.2-1.2-1.2H37.2z"/>
	</g>
	<g class="st1">
		<path class="st2" d="M38.7,11.7h-1.6c-1.8,0-3.2-1.4-3.2-3.2V3.4c0-1.8,1.4-3.2,3.2-3.2h1.6c1.8,0,3.2,1.4,3.2,3.2v5.1
			C41.9,10.3,40.5,11.7,38.7,11.7z M37.2,2.2c-0.7,0-1.3,0.5-1.3,1.2v5.1c0,0.7,0.5,1.2,1.2,1.2h1.6c0.7,0,1.2-0.5,1.2-1.2V3.4
			c0-0.7-0.5-1.2-1.2-1.2H37.2z"/>
	</g>
	<g class="st1">
		<path class="st2" d="M38.7,39.7h-1.6c-1.8,0-3.2-1.4-3.2-3.2v-5.1c0-1.8,1.4-3.2,3.2-3.2h1.6c1.8,0,3.2,1.4,3.2,3.2v5.1
			C41.9,38.3,40.5,39.7,38.7,39.7z M37.2,30.2c-0.7,0-1.2,0.5-1.2,1.2v5.1c0,0.7,0.5,1.2,1.2,1.2h1.6c0.7,0,1.2-0.5,1.2-1.2v-5.1
			c0-0.7-0.5-1.2-1.2-1.2C38.8,30.2,37.2,30.2,37.2,30.2z"/>
	</g>
</g>
<path class="st0" d="M6.4,27.1h-7.1C-2,27.1-3,28.2-3,29.5v7.1c0,1.3,1.1,2.3,2.4,2.3h7.1c1.3,0,2.4-1.1,2.4-2.3v-7.1
	C8.7,28.2,7.7,27.1,6.4,27.1z M4.6,21.3h14.1v3.5h3.5v-3.5h14.1v3.5h3.5v-4.2c0-1.6-1.3-2.8-2.8-2.8H22.2V13h2.9
	c1.3,0,2.4-1.1,2.4-2.3V3.6c0-1.3-1.1-2.3-2.4-2.3h-9.4c-1.3,0-2.3,1.1-2.3,2.3v7.1c0,1.3,1.1,2.3,2.3,2.3h2.9v4.7H3.9
	c-1.6,0-2.8,1.3-2.8,2.8v4.2h3.5V21.3z M24,27.1h-7c-1.3,0-2.4,1.1-2.4,2.4v7.1c0,1.3,1.1,2.3,2.4,2.3h7c1.3,0,2.4-1.1,2.4-2.3v-7.1
	C26.3,28.2,25.3,27.1,24,27.1z M41.6,27.1h-7.1c-1.3,0-2.3,1.1-2.3,2.4v7.1c0,1.3,1.1,2.3,2.3,2.3h7.1c1.3,0,2.3-1.1,2.3-2.3v-7.1
	C44,28.2,42.9,27.1,41.6,27.1z"/>
<path class="st3" d="M20.5,8.8l-11,7l11,7l-11,7l-11.1-7.1l11.1-7l-11.1-7l11.1-7L20.5,8.8L20.5,8.8z M9.4,32.2l11-7l11,7l-11,7
	L9.4,32.2z M20.5,22.8l11-7l-11-7l11-7l11.1,7l-11.1,7l11.1,7l-11.1,7L20.5,22.8L20.5,22.8z"/>
<path class="st0" d="M39.8,1.6H1.3c-2.1,0-3.9,1.7-3.9,3.9v28.3c0,2.1,1.7,3.9,3.9,3.9h38.5c2.1,0,3.9-1.7,3.9-3.9V5.5
	C43.7,3.3,41.9,1.6,39.8,1.6z M39.8,33.7H1.3V5.5h38.5V33.7z M14.1,19.6c2.8,0,5.1-2.3,5.1-5.1S17,9.3,14.1,9.3S9,11.6,9,14.5
	S11.3,19.6,14.1,19.6z M6.9,29.9h14.4c1,0,1.8-0.7,1.8-1.5v-1.5c0-2.6-2.4-4.6-5.4-4.6c-0.9,0-1.5,0.6-3.6,0.6
	c-2.2,0-2.7-0.6-3.6-0.6c-3,0-5.4,2.1-5.4,4.6v1.5C5.1,29.2,5.9,29.9,6.9,29.9z M26.3,24.7h9c0.4,0,0.6-0.3,0.6-0.6v-1.3
	c0-0.4-0.3-0.6-0.6-0.6h-9c-0.4,0-0.6,0.3-0.6,0.6v1.3C25.7,24.4,26,24.7,26.3,24.7z M26.3,19.6h9c0.4,0,0.6-0.3,0.6-0.6v-1.3
	c0-0.4-0.3-0.6-0.6-0.6h-9c-0.4,0-0.6,0.3-0.6,0.6V19C25.7,19.3,26,19.6,26.3,19.6z M26.3,14.5h9c0.4,0,0.6-0.3,0.6-0.6v-1.3
	c0-0.4-0.3-0.6-0.6-0.6h-9c-0.4,0-0.6,0.3-0.6,0.6v1.3C25.7,14.2,26,14.5,26.3,14.5z"/>
<path class="st0" d="M44.3,17v1.4c0,1.1-0.9,2-2,2h-0.7l-2.2,15.5c-0.3,2-2,3.5-4,3.5H4.5c-2,0-3.7-1.5-4-3.5l-2.2-15.5h-0.7
	c-1.1,0-2-0.9-2-2V17c0-1.1,0.9-2,2-2h5.7l9-12.4c0.9-1.2,2.6-1.5,3.8-0.6c1.2,0.9,1.5,2.6,0.6,3.8L10,15h19.9l-6.7-9.2
	c-0.9-1.2-0.6-2.9,0.6-3.8c1.2-0.9,2.9-0.6,3.8,0.6l9,12.4h5.7C43.4,15,44.3,15.9,44.3,17z M22,31.9v-9.5c0-1.1-0.9-2-2-2
	s-2,0.9-2,2v9.5c0,1.1,0.9,2,2,2S22,33,22,31.9z M31.4,31.9v-9.5c0-1.1-0.9-2-2-2s-2,0.9-2,2v9.5c0,1.1,0.9,2,2,2S31.4,33,31.4,31.9
	z M12.5,31.9v-9.5c0-1.1-0.9-2-2-2s-2,0.9-2,2v9.5c0,1.1,0.9,2,2,2S12.5,33,12.5,31.9z"/>
<path class="st3" d="M36.6,6.4v3.4c0,3-7.5,5.4-16.7,5.4S3.3,12.8,3.3,9.8V6.4c0-3,7.5-5.4,16.7-5.4S36.6,3.4,36.6,6.4z M36.6,14
	v7.7c0,3-7.5,5.4-16.7,5.4S3.3,24.7,3.3,21.7V14c3.6,2.5,10.1,3.6,16.7,3.6S33,16.5,36.6,14z M36.6,26v7.7c0,3-7.5,5.4-16.7,5.4
	S3.3,36.6,3.3,33.6V26c3.6,2.5,10.1,3.6,16.7,3.6S33,28.4,36.6,26z"/>
<path class="st0" d="M42.5,17L33,5.6c-0.6-0.8-1.6-1.2-2.6-1.2h-30c-1.2,0-2.3,1-2.3,2.3V27c0,1.2,1,2.3,2.3,2.3h2.3
	c0,3.7,3,6.8,6.8,6.8s6.8-3,6.8-6.8h9c0,3.7,3,6.8,6.8,6.8c3.7,0,6.8-3,6.8-6.8H41c1.2,0,2.3-1,2.3-2.3v-7.8
	C43.3,18.4,43,17.6,42.5,17L42.5,17z M2.6,15.7V8.9h6.8v6.8H2.6z M9.4,32.6c-1.9,0-3.4-1.5-3.4-3.4c0-1.9,1.5-3.4,3.4-3.4
	s3.4,1.5,3.4,3.4C12.8,31.1,11.3,32.6,9.4,32.6z M20.7,15.7h-6.8V8.9h6.8V15.7z M32,32.6c-1.9,0-3.4-1.5-3.4-3.4
	c0-1.9,1.5-3.4,3.4-3.4s3.4,1.5,3.4,3.4C35.4,31.1,33.9,32.6,32,32.6z M25.2,15.7V8.9h4.7l5.6,6.8H25.2z"/>
<g>
	<g>
		<path class="st2" d="M17.2,25.5h-14c-1.8,0-3.2-1.4-3.2-3.2v-5.1C0,15.4,1.4,14,3.2,14h14c0.6,0,1,0.4,1,1c0,0.6-0.4,1-1,1h-14
			C2.5,16,2,16.5,2,17.2v5.1c0,0.7,0.5,1.2,1.2,1.2h14c0.6,0,1,0.4,1,1S17.8,25.5,17.2,25.5z"/>
	</g>
	<g>
		<path class="st2" d="M27,25.5h-2.8c-0.6,0-1-0.4-1-1s0.4-1,1-1H27c0.7,0,1.2-0.5,1.2-1.2v-5.1c0-0.7-0.5-1.2-1.2-1.2h-2.8
			c-0.6,0-1-0.4-1-1s0.4-1,1-1H27c1.8,0,3.2,1.4,3.2,3.2v5.1C30.2,24.1,28.8,25.5,27,25.5z"/>
	</g>
	<g>
		<path class="st2" d="M27,11.5H3.3c-1.8,0-3.2-1.4-3.2-3.2V3.2C0.1,1.4,1.5,0,3.3,0h23.8c1.8,0,3.2,1.4,3.2,3.2v5.1
			C30.2,10.1,28.8,11.5,27,11.5z M3.3,2C2.6,2,2.1,2.5,2.1,3.2v5.1c0,0.7,0.5,1.2,1.2,1.2h23.8c0.7,0,1.2-0.5,1.2-1.2V3.2
			c0-0.7-0.5-1.2-1.2-1.2H3.3z"/>
	</g>
	<g>
		<path class="st2" d="M27,39.5H3.3c-1.8,0-3.2-1.4-3.2-3.2v-5.1c0-1.8,1.4-3.2,3.2-3.2h23.8c1.8,0,3.2,1.4,3.2,3.2v5.1
			C30.2,38.1,28.8,39.5,27,39.5z M3.3,30c-0.7,0-1.2,0.5-1.2,1.2v5.1c0,0.7,0.5,1.2,1.2,1.2h23.8c0.7,0,1.2-0.5,1.2-1.2v-5.1
			c0-0.7-0.5-1.2-1.2-1.2C27.1,30,3.3,30,3.3,30z"/>
	</g>
	<g>
		<path class="st2" d="M37,25.5h-1.6c-1.8,0-3.2-1.4-3.2-3.2v-5.1c0-1.8,1.4-3.2,3.2-3.2H37c1.8,0,3.2,1.4,3.2,3.2v5.1
			C40.2,24.1,38.8,25.5,37,25.5z M35.5,16c-0.7,0-1.2,0.5-1.2,1.2v5.1c0,0.7,0.5,1.2,1.2,1.2h1.6c0.7,0,1.2-0.5,1.2-1.2v-5.1
			c0-0.7-0.5-1.2-1.2-1.2H35.5z"/>
	</g>
	<g>
		<path class="st2" d="M37,11.5h-1.6c-1.8,0-3.2-1.4-3.2-3.2V3.2c0-1.8,1.4-3.2,3.2-3.2H37c1.8,0,3.2,1.4,3.2,3.2v5.1
			C40.2,10.1,38.8,11.5,37,11.5z M35.5,2c-0.7,0-1.3,0.5-1.3,1.2v5.1c0,0.7,0.5,1.2,1.2,1.2H37c0.7,0,1.2-0.5,1.2-1.2V3.2
			C38.2,2.5,37.7,2,37,2H35.5z"/>
	</g>
	<g>
		<path class="st2" d="M37,39.5h-1.6c-1.8,0-3.2-1.4-3.2-3.2v-5.1c0-1.8,1.4-3.2,3.2-3.2H37c1.8,0,3.2,1.4,3.2,3.2v5.1
			C40.2,38.1,38.8,39.5,37,39.5z M35.5,30c-0.7,0-1.2,0.5-1.2,1.2v5.1c0,0.7,0.5,1.2,1.2,1.2h1.6c0.7,0,1.2-0.5,1.2-1.2v-5.1
			c0-0.7-0.5-1.2-1.2-1.2C37.1,30,35.5,30,35.5,30z"/>
	</g>
</g>
</svg>
