<?xml version="1.0" encoding="utf-8"?>
<!-- Generator: Adobe Illustrator 22.1.0, SVG Export Plug-In . SVG Version: 6.00 Build 0)  -->
<svg version="1.1" id="Layer_1" xmlns="http://www.w3.org/2000/svg" xmlns:xlink="http://www.w3.org/1999/xlink" x="0px" y="0px"
	 viewBox="0 0 48.7 39.5" style="enable-background:new 0 0 48.7 39.5;" xml:space="preserve">
<style type="text/css">
	.st0{display:none;}
	.st1{display:inline;}
	.st2{fill:#FFFFFF;}
	.st3{display:none;fill:#FFFFFF;}
</style>
<g class="st0">
	<g class="st1">
		<path class="st2" d="M23.3,25.5h-14c-1.8,0-3.2-1.4-3.2-3.2v-5.1c0-1.8,1.4-3.2,3.2-3.2h14c0.6,0,1,0.4,1,1c0,0.6-0.4,1-1,1h-14
			c-0.7,0-1.2,0.5-1.2,1.2v5.1c0,0.7,0.5,1.2,1.2,1.2h14c0.6,0,1,0.4,1,1S23.9,25.5,23.3,25.5z"/>
	</g>
	<g class="st1">
		<path class="st2" d="M33.1,25.5h-2.8c-0.6,0-1-0.4-1-1s0.4-1,1-1h2.8c0.7,0,1.2-0.5,1.2-1.2v-5.1c0-0.7-0.5-1.2-1.2-1.2h-2.8
			c-0.6,0-1-0.4-1-1s0.4-1,1-1h2.8c1.8,0,3.2,1.4,3.2,3.2v5.1C36.3,24.1,34.9,25.5,33.1,25.5z"/>
	</g>
	<g class="st1">
		<path class="st2" d="M33.1,11.5H9.4c-1.8,0-3.2-1.4-3.2-3.2V3.2C6.2,1.4,7.6,0,9.4,0h23.8c1.8,0,3.2,1.4,3.2,3.2v5.1
			C36.3,10.1,34.9,11.5,33.1,11.5z M9.4,2C8.7,2,8.2,2.5,8.2,3.2v5.1c0,0.7,0.5,1.2,1.2,1.2h23.8c0.7,0,1.2-0.5,1.2-1.2V3.2
			c0-0.7-0.5-1.2-1.2-1.2H9.4z"/>
	</g>
	<g class="st1">
		<path class="st2" d="M33.1,39.5H9.4c-1.8,0-3.2-1.4-3.2-3.2v-5.1c0-1.8,1.4-3.2,3.2-3.2h23.8c1.8,0,3.2,1.4,3.2,3.2v5.1
			C36.3,38.1,34.9,39.5,33.1,39.5z M9.4,30c-0.7,0-1.2,0.5-1.2,1.2v5.1c0,0.7,0.5,1.2,1.2,1.2h23.8c0.7,0,1.2-0.5,1.2-1.2v-5.1
			c0-0.7-0.5-1.2-1.2-1.2C33.2,30,9.4,30,9.4,30z"/>
	</g>
	<g class="st1">
		<path class="st2" d="M43.1,25.5h-1.6c-1.8,0-3.2-1.4-3.2-3.2v-5.1c0-1.8,1.4-3.2,3.2-3.2h1.6c1.8,0,3.2,1.4,3.2,3.2v5.1
			C46.3,24.1,44.9,25.5,43.1,25.5z M41.6,16c-0.7,0-1.2,0.5-1.2,1.2v5.1c0,0.7,0.5,1.2,1.2,1.2h1.6c0.7,0,1.2-0.5,1.2-1.2v-5.1
			c0-0.7-0.5-1.2-1.2-1.2H41.6z"/>
	</g>
	<g class="st1">
		<path class="st2" d="M43.1,11.5h-1.6c-1.8,0-3.2-1.4-3.2-3.2V3.2c0-1.8,1.4-3.2,3.2-3.2h1.6c1.8,0,3.2,1.4,3.2,3.2v5.1
			C46.3,10.1,44.9,11.5,43.1,11.5z M41.6,2c-0.7,0-1.3,0.5-1.3,1.2v5.1c0,0.7,0.5,1.2,1.2,1.2h1.6c0.7,0,1.2-0.5,1.2-1.2V3.2
			c0-0.7-0.5-1.2-1.2-1.2H41.6z"/>
	</g>
	<g class="st1">
		<path class="st2" d="M43.1,39.5h-1.6c-1.8,0-3.2-1.4-3.2-3.2v-5.1c0-1.8,1.4-3.2,3.2-3.2h1.6c1.8,0,3.2,1.4,3.2,3.2v5.1
			C46.3,38.1,44.9,39.5,43.1,39.5z M41.6,30c-0.7,0-1.2,0.5-1.2,1.2v5.1c0,0.7,0.5,1.2,1.2,1.2h1.6c0.7,0,1.2-0.5,1.2-1.2v-5.1
			c0-0.7-0.5-1.2-1.2-1.2C43.2,30,41.6,30,41.6,30z"/>
	</g>
</g>
<path class="st2" d="M10.8,26.9h-7c-1.3,0-2.3,1.1-2.3,2.4v7.1c0,1.3,1.1,2.3,2.3,2.3h7c1.3,0,2.4-1.1,2.4-2.3v-7.1
	C13.1,27.9,12.1,26.9,10.8,26.9z M9,21h14.1v3.5h3.5V21h14.1v3.5h3.5v-4.2c0-1.6-1.3-2.8-2.8-2.8H26.6v-4.7h2.9
	c1.3,0,2.3-1.1,2.3-2.3V3.4c0-1.3-1.1-2.3-2.3-2.3h-9.4c-1.3,0-2.3,1.1-2.3,2.3v7.1c0,1.3,1.1,2.3,2.3,2.3h2.9v4.7H8.3
	c-1.6,0-2.8,1.3-2.8,2.8v4.2H9V21z M28.4,26.9h-7c-1.3,0-2.4,1.1-2.4,2.4v7.1c0,1.3,1.1,2.3,2.4,2.3h7c1.3,0,2.4-1.1,2.4-2.3v-7.1
	C30.7,27.9,29.7,26.9,28.4,26.9z M46,26.9h-7c-1.3,0-2.4,1.1-2.4,2.4v7.1c0,1.3,1.1,2.3,2.4,2.3h7c1.3,0,2.3-1.1,2.3-2.3v-7.1
	C48.4,27.9,47.3,26.9,46,26.9z"/>
<path class="st3" d="M24.9,8.6l-11,7l11,7l-11,7L2.8,22.6l11.1-7l-11.1-7l11.1-7L24.9,8.6L24.9,8.6z M13.8,31.9l11-7l11,7l-11,7
	L13.8,31.9z M24.9,22.6l11-7l-11-7l11-7l11.1,7l-11.1,7l11.1,7l-11.1,7L24.9,22.6L24.9,22.6z"/>
<path class="st0" d="M44.2,1.4H5.7c-2.1,0-3.9,1.7-3.9,3.9v28.3c0,2.1,1.7,3.9,3.9,3.9h38.5c2.1,0,3.9-1.7,3.9-3.9V5.2
	C48.1,3.1,46.3,1.4,44.2,1.4z M44.2,33.5H5.7V5.2h38.5V33.5z M18.5,19.4c2.8,0,5.1-2.3,5.1-5.1s-2.3-5.1-5.1-5.1s-5.1,2.3-5.1,5.1
	S15.7,19.4,18.5,19.4z M11.3,29.6h14.4c1,0,1.8-0.7,1.8-1.5v-1.5c0-2.6-2.4-4.6-5.4-4.6c-0.9,0-1.5,0.6-3.6,0.6
	c-2.2,0-2.7-0.6-3.6-0.6c-3,0-5.4,2.1-5.4,4.6v1.5C9.5,28.9,10.3,29.6,11.3,29.6z M30.7,24.5h9c0.4,0,0.6-0.3,0.6-0.6v-1.3
	c0-0.4-0.3-0.6-0.6-0.6h-9c-0.4,0-0.6,0.3-0.6,0.6v1.3C30.1,24.2,30.4,24.5,30.7,24.5z M30.7,19.4h9c0.4,0,0.6-0.3,0.6-0.6v-1.3
	c0-0.4-0.3-0.6-0.6-0.6h-9c-0.4,0-0.6,0.3-0.6,0.6v1.3C30.1,19.1,30.4,19.4,30.7,19.4z M30.7,14.2h9c0.4,0,0.6-0.3,0.6-0.6v-1.3
	c0-0.4-0.3-0.6-0.6-0.6h-9c-0.4,0-0.6,0.3-0.6,0.6v1.3C30.1,13.9,30.4,14.2,30.7,14.2z"/>
<path class="st0" d="M48.7,16.8v1.4c0,1.1-0.9,2-2,2H46l-2.2,15.5c-0.3,2-2,3.5-4,3.5H8.9c-2,0-3.7-1.5-4-3.5L2.7,20.2H2
	c-1.1,0-2-0.9-2-2v-1.4c0-1.1,0.9-2,2-2h5.7l9-12.4c0.9-1.2,2.6-1.5,3.8-0.6c1.2,0.9,1.5,2.6,0.6,3.8l-6.7,9.2h19.9l-6.7-9.2
	c-0.9-1.2-0.6-2.9,0.6-3.8c1.2-0.9,2.9-0.6,3.8,0.6l9,12.4h5.7C47.8,14.8,48.7,15.7,48.7,16.8z M26.4,31.7v-9.5c0-1.1-0.9-2-2-2
	s-2,0.9-2,2v9.5c0,1.1,0.9,2,2,2S26.4,32.8,26.4,31.7z M35.9,31.7v-9.5c0-1.1-0.9-2-2-2s-2,0.9-2,2v9.5c0,1.1,0.9,2,2,2
	S35.9,32.8,35.9,31.7z M16.9,31.7v-9.5c0-1.1-0.9-2-2-2s-2,0.9-2,2v9.5c0,1.1,0.9,2,2,2S16.9,32.8,16.9,31.7z"/>
</svg>
