<?xml version="1.0" encoding="utf-8"?>
<!-- Generator: Adobe Illustrator 22.1.0, SVG Export Plug-In . SVG Version: 6.00 Build 0)  -->
<svg version="1.1" id="Layer_1" xmlns="http://www.w3.org/2000/svg" xmlns:xlink="http://www.w3.org/1999/xlink" x="0px" y="0px"
	 viewBox="0 0 44.1 37.4" style="enable-background:new 0 0 44.1 37.4;" xml:space="preserve">
<style type="text/css">
	.st0{display:none;}
	.st1{display:inline;}
	.st2{fill:#FFFFFF;}
	.st3{display:none;fill:#FFFFFF;}
</style>
<g class="st0">
	<g class="st1">
		<path class="st2" d="M20.5,24h-14c-1.8,0-3.2-1.4-3.2-3.2v-5.1c0-1.8,1.4-3.2,3.2-3.2h14c0.6,0,1,0.4,1,1c0,0.6-0.4,1-1,1h-14
			c-0.7,0-1.2,0.5-1.2,1.2v5.1c0,0.7,0.5,1.2,1.2,1.2h14c0.6,0,1,0.4,1,1S21.1,24,20.5,24z"/>
	</g>
	<g class="st1">
		<path class="st2" d="M30.3,24h-2.8c-0.6,0-1-0.4-1-1s0.4-1,1-1h2.8c0.7,0,1.2-0.5,1.2-1.2v-5.1c0-0.7-0.5-1.2-1.2-1.2h-2.8
			c-0.6,0-1-0.4-1-1s0.4-1,1-1h2.8c1.8,0,3.2,1.4,3.2,3.2v5.1C33.5,22.6,32.1,24,30.3,24z"/>
	</g>
	<g class="st1">
		<path class="st2" d="M30.3,10H6.6c-1.8,0-3.2-1.4-3.2-3.2V1.7c0-1.8,1.4-3.2,3.2-3.2h23.8c1.8,0,3.2,1.4,3.2,3.2v5.1
			C33.5,8.6,32.1,10,30.3,10z M6.6,0.5C5.9,0.5,5.4,1,5.4,1.7v5.1C5.4,7.5,5.9,8,6.6,8h23.8c0.7,0,1.2-0.5,1.2-1.2V1.7
			c0-0.7-0.5-1.2-1.2-1.2H6.6z"/>
	</g>
	<g class="st1">
		<path class="st2" d="M30.3,38H6.6c-1.8,0-3.2-1.4-3.2-3.2v-5.1c0-1.8,1.4-3.2,3.2-3.2h23.8c1.8,0,3.2,1.4,3.2,3.2v5.1
			C33.5,36.6,32.1,38,30.3,38z M6.6,28.5c-0.7,0-1.2,0.5-1.2,1.2v5.1c0,0.7,0.5,1.2,1.2,1.2h23.8c0.7,0,1.2-0.5,1.2-1.2v-5.1
			c0-0.7-0.5-1.2-1.2-1.2C30.4,28.5,6.6,28.5,6.6,28.5z"/>
	</g>
	<g class="st1">
		<path class="st2" d="M40.3,24h-1.6c-1.8,0-3.2-1.4-3.2-3.2v-5.1c0-1.8,1.4-3.2,3.2-3.2h1.6c1.8,0,3.2,1.4,3.2,3.2v5.1
			C43.5,22.6,42.1,24,40.3,24z M38.8,14.5c-0.7,0-1.2,0.5-1.2,1.2v5.1c0,0.7,0.5,1.2,1.2,1.2h1.6c0.7,0,1.2-0.5,1.2-1.2v-5.1
			c0-0.7-0.5-1.2-1.2-1.2H38.8z"/>
	</g>
	<g class="st1">
		<path class="st2" d="M40.3,10h-1.6c-1.8,0-3.2-1.4-3.2-3.2V1.7c0-1.8,1.4-3.2,3.2-3.2h1.6c1.8,0,3.2,1.4,3.2,3.2v5.1
			C43.5,8.6,42.1,10,40.3,10z M38.8,0.5c-0.7,0-1.3,0.5-1.3,1.2v5.1C37.5,7.5,38,8,38.7,8h1.6c0.7,0,1.2-0.5,1.2-1.2V1.7
			c0-0.7-0.5-1.2-1.2-1.2H38.8z"/>
	</g>
	<g class="st1">
		<path class="st2" d="M40.3,38h-1.6c-1.8,0-3.2-1.4-3.2-3.2v-5.1c0-1.8,1.4-3.2,3.2-3.2h1.6c1.8,0,3.2,1.4,3.2,3.2v5.1
			C43.5,36.6,42.1,38,40.3,38z M38.8,28.5c-0.7,0-1.2,0.5-1.2,1.2v5.1c0,0.7,0.5,1.2,1.2,1.2h1.6c0.7,0,1.2-0.5,1.2-1.2v-5.1
			c0-0.7-0.5-1.2-1.2-1.2C40.4,28.5,38.8,28.5,38.8,28.5z"/>
	</g>
</g>
<path class="st3" d="M8,25.4H0.9c-1.3,0-2.3,1.1-2.3,2.4v7.1c0,1.3,1.1,2.3,2.3,2.3H8c1.3,0,2.3-1.1,2.3-2.3v-7.1
	C10.3,26.4,9.3,25.4,8,25.4z M6.2,19.5h14.1V23h3.5v-3.5h14.1V23h3.5v-4.2c0-1.6-1.3-2.8-2.8-2.8H23.8v-4.7h2.9
	c1.3,0,2.3-1.1,2.3-2.3V1.9c0-1.3-1.1-2.3-2.3-2.3h-9.4c-1.3,0-2.3,1.1-2.3,2.3v7.1c0,1.3,1.1,2.3,2.3,2.3h2.9V16H5.5
	c-1.6,0-2.8,1.3-2.8,2.8V23h3.5V19.5z M25.6,25.4h-7c-1.3,0-2.4,1.1-2.4,2.4v7.1c0,1.3,1.1,2.3,2.4,2.3h7c1.3,0,2.4-1.1,2.4-2.3
	v-7.1C27.9,26.4,26.9,25.4,25.6,25.4z M43.2,25.4h-7c-1.3,0-2.4,1.1-2.4,2.4v7.1c0,1.3,1.1,2.3,2.4,2.3h7c1.3,0,2.3-1.1,2.3-2.3
	v-7.1C45.6,26.4,44.5,25.4,43.2,25.4z"/>
<path class="st2" d="M22.1,7l-11,7l11,7l-11,7L0,21.1l11.1-7L0,7l11.1-7L22.1,7L22.1,7z M11,30.4l11-7l11,7l-11,7L11,30.4z
	 M22.1,21.1l11-7l-11-7l11-7l11.1,7l-11.1,7l11.1,7l-11.1,7L22.1,21.1L22.1,21.1z"/>
<path class="st0" d="M41.4-0.2H2.9C0.8-0.2-1,1.6-1,3.7v28.3c0,2.1,1.7,3.9,3.9,3.9h38.5c2.1,0,3.9-1.7,3.9-3.9V3.7
	C45.3,1.6,43.5-0.2,41.4-0.2z M41.4,31.9H2.9V3.7h38.5V31.9z M15.7,17.8c2.8,0,5.1-2.3,5.1-5.1s-2.3-5.1-5.1-5.1s-5.1,2.3-5.1,5.1
	S12.9,17.8,15.7,17.8z M8.5,28.1h14.4c1,0,1.8-0.7,1.8-1.5V25c0-2.6-2.4-4.6-5.4-4.6c-0.9,0-1.5,0.6-3.6,0.6c-2.2,0-2.7-0.6-3.6-0.6
	c-3,0-5.4,2.1-5.4,4.6v1.5C6.7,27.4,7.5,28.1,8.5,28.1z M27.9,23h9c0.4,0,0.6-0.3,0.6-0.6V21c0-0.4-0.3-0.6-0.6-0.6h-9
	c-0.4,0-0.6,0.3-0.6,0.6v1.3C27.3,22.7,27.6,23,27.9,23z M27.9,17.8h9c0.4,0,0.6-0.3,0.6-0.6v-1.3c0-0.4-0.3-0.6-0.6-0.6h-9
	c-0.4,0-0.6,0.3-0.6,0.6v1.3C27.3,17.5,27.6,17.8,27.9,17.8z M27.9,12.7h9c0.4,0,0.6-0.3,0.6-0.6v-1.3c0-0.4-0.3-0.6-0.6-0.6h-9
	c-0.4,0-0.6,0.3-0.6,0.6V12C27.3,12.4,27.6,12.7,27.9,12.7z"/>
<path class="st0" d="M45.9,15.3v1.4c0,1.1-0.9,2-2,2h-0.7L41,34.1c-0.3,2-2,3.5-4,3.5H6.1c-2,0-3.7-1.5-4-3.5l-2.2-15.5h-0.7
	c-1.1,0-2-0.9-2-2v-1.4c0-1.1,0.9-2,2-2h5.7l9-12.4c0.9-1.2,2.6-1.5,3.8-0.6c1.2,0.9,1.5,2.6,0.6,3.8l-6.7,9.2h19.9L24.8,4
	c-0.9-1.2-0.6-2.9,0.6-3.8c1.2-0.9,2.9-0.6,3.8,0.6l9,12.4h5.7C45,13.2,45.9,14.1,45.9,15.3z M23.6,30.1v-9.5c0-1.1-0.9-2-2-2
	s-2,0.9-2,2v9.5c0,1.1,0.9,2,2,2S23.6,31.3,23.6,30.1z M33,30.1v-9.5c0-1.1-0.9-2-2-2c-1.1,0-2,0.9-2,2v9.5c0,1.1,0.9,2,2,2
	C32.1,32.2,33,31.3,33,30.1z M14.1,30.1v-9.5c0-1.1-0.9-2-2-2s-2,0.9-2,2v9.5c0,1.1,0.9,2,2,2S14.1,31.3,14.1,30.1z"/>
</svg>
